<?xml version="1.0" standalone="no"?>
<!DOCTYPE svg PUBLIC "-//W3C//DTD SVG 1.1//EN" "http://www.w3.org/Graphics/SVG/1.1/DTD/svg11.dtd" >
<svg xmlns="http://www.w3.org/2000/svg">
<metadata>Generated by IcoMoon</metadata>
<defs>
<font id="pdf-converter" horiz-adv-x="1024">
<font-face units-per-em="1024" ascent="960" descent="-64" />
<missing-glyph horiz-adv-x="1024" />
<glyph unicode="&#x20;" horiz-adv-x="512" d="" />
<glyph unicode="&#xe900;" d="M641.707 539.022c0 21.618-32.427 41.074-64.853 41.074s-59.449-19.456-59.449-41.074c0-27.022 32.427-46.478 70.258-54.044 32.427-6.485 54.044-21.618 54.044-45.397 0-30.265-30.265-57.287-64.853-57.287-43.236 0-86.471 27.022-108.089 57.287-21.618 29.184-27.022 61.611-21.618 94.037 10.809 64.853 75.662 108.089 140.516 108.089 27.022 0 54.044-27.022 54.044-102.684z" />
<glyph unicode="&#xe901;" d="M603.716 447.306c15.286 15.286 6.114 51.973-16.815 74.902s-55.794 28.279-71.080 12.993c-19.108-19.108-9.936-55.794 11.465-87.895 18.343-27.515 22.929-53.501 6.114-70.316-21.401-21.401-61.909-19.108-86.366 5.35-30.572 30.572-42.037 80.252-35.922 116.938 5.35 35.922 24.458 62.673 51.208 81.781 53.501 38.215 129.932 22.929 175.79-22.929 19.108-19.108 19.108-57.323-34.394-110.824z" />
<glyph unicode="&#xe902;" d="M512 409.316c21.618 0 41.074 32.427 41.074 64.853s-19.456 59.449-41.074 59.449c-27.022 0-46.478-32.427-54.044-70.258-6.485-32.427-21.618-54.044-45.397-54.044-30.265 0-57.287 30.265-57.287 64.853 0 43.236 27.022 86.471 57.287 108.089 29.184 21.618 61.611 27.022 94.037 21.618 64.853-10.809 108.089-75.662 108.089-140.516 0-27.022-27.022-54.044-102.684-54.044z" />
<glyph unicode="&#xe903;" d="M420.284 447.306c15.286-15.286 51.973-6.114 74.902 16.815s28.279 55.794 12.993 71.080c-19.108 19.108-55.794 9.936-87.895-11.465-27.515-18.343-53.501-22.929-70.316-6.114-21.401 21.401-19.108 61.909 5.35 86.366 30.572 30.572 80.252 42.037 116.938 35.922 35.922-5.35 62.673-24.458 81.781-51.208 38.215-53.501 22.929-129.932-22.929-175.79-19.108-19.108-57.323-19.108-110.824 34.394z" />
<glyph unicode="&#xe904;" d="M382.293 539.022c0-21.618 32.427-41.074 64.853-41.074s59.449 19.456 59.449 41.074c0 27.022-32.427 46.478-70.258 54.044-32.427 6.485-54.044 21.618-54.044 45.397 0 30.265 30.265 57.287 64.853 57.287 43.236 0 86.471-27.022 108.089-57.287 21.618-29.184 27.022-61.611 21.618-94.037-10.809-64.853-75.662-108.089-140.516-108.089-27.022 0-54.044 27.022-54.044 102.684z" />
<glyph unicode="&#xe905;" d="M420.284 630.739c-15.286-15.286-6.114-51.973 16.815-74.902s55.794-28.279 71.080-12.993c19.108 19.108 9.936 55.794-11.465 87.895-18.343 27.515-22.929 53.501-6.114 70.316 21.401 21.401 61.909 19.108 86.366-5.35 30.572-30.572 42.037-80.252 35.922-116.938-5.35-35.922-24.458-62.673-51.208-81.781-53.501-38.215-129.932-22.929-175.79 22.929-19.108 19.108-19.108 57.323 34.394 110.824z" />
<glyph unicode="&#xe906;" d="M512 668.729c-21.618 0-41.074-32.427-41.074-64.853s19.456-59.449 41.074-59.449c27.022 0 46.478 32.427 54.044 70.258 6.485 32.427 21.618 54.044 45.397 54.044 30.265 0 57.287-30.265 57.287-64.853 0-43.236-27.022-86.471-57.287-108.089-29.184-21.618-61.611-27.022-94.037-21.618-64.853 10.809-108.089 75.662-108.089 140.516 0 27.022 27.022 54.044 102.684 54.044z" />
<glyph unicode="&#xe907;" d="M603.716 630.739c-15.286 15.286-51.973 6.114-74.902-16.815s-28.279-55.794-12.993-71.080c19.108-19.108 55.794-9.936 87.895 11.465 27.515 18.343 53.501 22.929 70.316 6.114 21.401-21.401 19.108-61.909-5.35-86.366-30.572-30.572-80.252-42.037-116.938-35.922-35.922 5.35-62.673 24.458-81.781 51.208-38.215 53.501-22.929 129.932 22.929 175.79 19.108 19.108 57.323 19.108 110.824-34.394z" />
<glyph unicode="&#xe908;" d="M566.613 539.022c0-30.162-24.451-54.613-54.613-54.613v0c-30.162 0-54.613 24.451-54.613 54.613v0c0 30.162 24.451 54.613 54.613 54.613v0c30.162 0 54.613-24.451 54.613-54.613v0z" />
<glyph unicode="&#xe909;" d="M227.192 181.396h43.008q10.377 0 16.93-3.004t10.103-7.509 4.779-9.83q1.365-5.325 1.365-9.83t-1.365-9.83q-1.229-5.188-4.779-9.694t-10.103-7.509q-6.554-2.867-16.93-2.867h-25.941v-37.41h-17.067zM244.258 135.248h24.986q2.867 0 5.871 0.819t5.461 2.594q2.594 1.911 4.096 4.915 1.638 3.14 1.638 7.782 0 4.779-1.365 7.919t-3.686 4.915q-2.321 1.911-5.325 2.594t-6.417 0.683h-25.259zM320.535 181.396h40.414q11.196 0 19.388-3.823t13.38-10.513q5.188-6.554 7.646-15.428 2.594-8.875 2.594-18.978t-2.594-18.978q-2.458-8.875-7.646-15.565-5.188-6.554-13.38-10.377t-19.388-3.823h-40.414zM337.601 97.838h16.794q9.967 0 16.247 2.594 6.417 2.731 9.967 7.373 3.686 4.779 4.915 11.059 1.365 6.417 1.365 13.79t-1.365 13.653q-1.229 6.417-4.915 11.059-3.55 4.779-9.967 7.373-6.281 2.731-16.247 2.731h-16.794zM421.387 181.396h67.311v-14.746h-50.244v-25.532h44.1v-13.926h-44.1v-43.281h-17.067zM550.093 130.879q-0.956 6.554-5.325 9.83-4.233 3.413-10.786 3.413-3.004 0-6.417-1.092-3.413-0.956-6.281-3.823-2.867-2.731-4.779-7.782-1.911-4.915-1.911-12.971 0-4.369 0.956-8.738 1.092-4.369 3.277-7.782 2.321-3.413 5.871-5.598 3.55-2.048 8.602-2.048 6.827 0 11.196 4.233 4.506 4.233 5.598 11.878h15.565q-2.185-13.79-10.513-21.163-8.192-7.236-21.845-7.236-8.329 0-14.746 2.731-6.281 2.867-10.65 7.646-4.369 4.915-6.69 11.605-2.185 6.69-2.185 14.473 0 7.919 2.185 14.882t6.554 12.015q4.369 5.188 10.786 8.055 6.554 3.004 15.292 3.004 6.144 0 11.605-1.638 5.598-1.502 9.83-4.642 4.369-3.14 7.1-7.919t3.277-11.332zM612.989 82q-8.465 0-15.155 2.731-6.554 2.867-11.196 7.782-4.506 4.915-6.963 11.742-2.321 6.827-2.321 15.019 0 8.055 2.321 14.882 2.458 6.827 6.963 11.742 4.642 4.915 11.196 7.646 6.69 2.867 15.155 2.867t15.019-2.867q6.69-2.731 11.196-7.646 4.642-4.915 6.963-11.742 2.458-6.827 2.458-14.882 0-8.192-2.458-15.019-2.321-6.827-6.963-11.742-4.506-4.915-11.196-7.782-6.554-2.731-15.019-2.731zM612.989 94.288q5.188 0 9.011 2.185t6.281 5.734 3.55 7.919q1.229 4.506 1.229 9.148 0 4.506-1.229 9.011-1.092 4.506-3.55 7.919-2.458 3.55-6.281 5.734t-9.011 2.185-9.011-2.185-6.281-5.734q-2.458-3.413-3.686-7.919-1.092-4.506-1.092-9.011 0-4.642 1.092-9.148 1.229-4.369 3.686-7.919t6.281-5.734 9.011-2.185zM663.871 154.499h14.746v-10.377l0.273-0.273q3.55 5.871 9.284 9.148 5.734 3.413 12.698 3.413 11.605 0 18.295-6.007t6.69-18.022v-48.469h-15.565v44.373q-0.273 8.329-3.55 12.015-3.277 3.823-10.24 3.823-3.959 0-7.1-1.502-3.14-1.365-5.325-3.959-2.185-2.458-3.413-5.871t-1.229-7.236v-41.643h-15.565zM737.553 154.499h16.93l17.886-54.204h0.273l17.203 54.204h16.111l-25.259-70.588h-17.476z" />
<glyph unicode="&#xe90a;" d="M362.004 256.635h195.584c50.729 0 69.12 5.284 87.654 15.196 18.408 9.89 33.109 24.617 42.697 42.497l0.27 0.552c9.912 18.473 15.196 36.864 15.196 87.593v195.523h214.508c36.864 0 50.237-3.85 63.754-11.059s24.084-17.818 31.273-31.273 11.059-26.829 11.059-63.754v-449.823c0-36.864-3.83-50.237-11.059-63.754-7.216-13.368-17.905-24.057-30.872-31.075l-0.401-0.198c-13.517-7.209-26.87-11.059-63.754-11.059h-449.843c-36.864 0-50.237 3.83-63.754 11.059s-24.003 17.818-31.273 31.273-11.059 26.87-11.059 63.754z" />
<glyph unicode="&#xe90b;" d="M899.891 199.434c0 9.769-8.090 17.674-18.084 17.674s-18.084-7.926-18.084-17.674v-78.725l-105.37 103.363c-3.296 3.232-7.815 5.226-12.8 5.226s-9.504-1.994-12.803-5.229l0.003 0.003c-3.256-3.163-5.278-7.581-5.284-12.471v-0.001c0.007-4.917 2.027-9.361 5.281-12.551l0.003-0.003 105.37-103.424h-80.159c-9.994 0-18.084-7.926-18.084-17.756s8.090-17.756 18.084-17.756h123.904c2.492 0.035 4.852 0.559 7.001 1.479l-0.12-0.046c4.412 1.794 7.869 5.171 9.724 9.409l0.045 0.115c0.856 1.921 1.354 4.164 1.354 6.522 0 0.098-0.001 0.195-0.003 0.292v-0.015l0.082 121.528z" />
<glyph unicode="&#xe90c;" d="M555.93 298.004h-449.843c-36.864 0-50.237 3.83-63.754 11.121s-24.105 17.756-31.273 31.273-11.059 26.706-11.059 63.672v449.843c0 36.864 3.85 50.237 11.059 63.754 7.208 13.374 17.89 24.070 30.853 31.095l0.4 0.198c13.537 7.188 26.911 11.039 63.775 11.039h449.843c36.864 0 50.237-3.85 63.754-11.059s24.003-17.818 31.273-31.273 11.059-26.89 11.059-63.754v-449.843c0-36.864-3.83-50.237-11.059-63.754s-17.818-24.084-31.273-31.273-26.87-11.059-63.754-11.059z" />
<glyph unicode="&#xe90d;" d="M426.885 783.667h60.621l-60.211-299.827h-63.365l-36.393 185.037-37.356-185.037h-65.597l-59.924 299.827h64.799l30.884-191.754 39.69 191.754h61.522l0.819-4.157 34.57-186.368z" />
<glyph unicode="&#xe90e;" d="M112.394 952.566h445.44c36.454 0 49.766-3.768 63.119-10.957 13.239-7.141 23.825-17.727 30.77-30.569l0.196-0.397c7.127-13.353 10.957-26.563 10.957-63.119v-445.358c0-36.454-3.83-49.766-10.957-63.119-7.141-13.239-17.727-23.825-30.569-30.77l-0.397-0.196c-13.353-7.127-26.624-10.957-63.119-10.957h-445.44c-36.454 0-49.766 3.83-63.119 10.957-13.231 7.144-23.809 17.729-30.749 30.569l-0.196 0.397c-7.127 13.353-10.957 26.624-10.957 63.119v445.44c0 36.454 3.85 49.766 10.957 63.119 7.179 13.2 17.745 23.766 30.548 30.747l0.397 0.198c13.353 7.127 26.624 10.854 63.119 10.854z" />
<glyph unicode="&#xe90f;" d="M912.65-57.651h-445.379c-36.454 0-49.766 3.768-63.119 10.957-13.284 7.079-23.887 17.682-30.772 30.57l-0.193 0.396c-7.127 13.353-10.957 26.563-10.957 63.119v445.338c0 36.454 3.768 49.766 10.957 63.119 7.079 13.284 17.682 23.887 30.57 30.772l0.396 0.193c13.353 7.127 26.624 10.957 63.119 10.957h445.358c36.557 0 49.766-3.85 63.119-10.957 13.21-6.963 24.003-17.756 30.966-30.966 7.209-13.353 10.957-26.624 10.957-63.119v-445.358c0-36.557-3.768-49.766-10.957-63.119-7.079-13.284-17.682-23.887-30.57-30.772l-0.396-0.193c-13.353-7.209-26.563-10.957-63.119-10.957z" />
<glyph unicode="&#xe910;" d="M188.826 634.982c0.031 0 0.067 0 0.104 0 9.768 0 17.701 7.861 17.816 17.602v77.835l147.354-145.449c3.25-3.198 7.713-5.172 12.636-5.172s9.386 1.974 12.639 5.174l-0.002-0.002c3.23 3.163 5.232 7.568 5.232 12.442s-2.002 9.279-5.229 12.439l-0.003 0.003-147.374 145.347h79.36c9.912 0 17.92 7.926 17.92 17.613s-8.192 17.613-17.92 17.613h-122.532c-2.455-0.018-4.789-0.513-6.922-1.397l0.122 0.045c-6.496-2.664-10.996-8.922-11.039-16.235v-120.325c0-9.687 8.192-17.613 17.818-17.613zM839.946 262.246c-0.061 0.001-0.134 0.001-0.206 0.001-9.712 0-17.599-7.816-17.714-17.501v-77.835l-147.415 145.306c-3.25 3.198-7.713 5.172-12.636 5.172s-9.386-1.974-12.639-5.174l0.002 0.002c-3.256-3.132-5.28-7.524-5.284-12.39v-0.001c0.029-4.861 2.047-9.246 5.28-12.386l0.004-0.004 147.456-145.408h-79.585c-9.83 0-17.818-7.926-17.818-17.613 0.057-9.684 7.921-17.512 17.613-17.512 0.079 0 0.158 0.001 0.238 0.002h122.438c7.329 0.009 13.632 4.392 16.441 10.679l0.046 0.114c0.829 1.985 1.323 4.29 1.352 6.706v120.495c-0.173 9.707-8.083 17.51-17.815 17.51-0.001 0-0.002 0-0.003 0v0zM455.332 368.476c-7.27-7.209-19.046-7.209-26.317 0s-7.27 19.128 0 26.624c3.371 3.361 8.022 5.439 13.158 5.439s9.788-2.078 13.159-5.439v0c3.369-3.424 5.449-8.125 5.449-13.312s-2.080-9.888-5.452-13.315l0.002 0.003zM524.247 437.432c-3.371-3.361-8.022-5.439-13.158-5.439s-9.788 2.078-13.159 5.439v0c-3.361 3.371-5.439 8.022-5.439 13.158s2.078 9.788 5.439 13.159v0c3.379 3.341 8.028 5.405 13.158 5.405s9.779-2.064 13.16-5.407l-0.002 0.002c3.361-3.371 5.439-8.022 5.439-13.158s-2.078-9.788-5.439-13.159v0zM593.060 506.327c-3.371-3.361-8.022-5.439-13.158-5.439s-9.788 2.078-13.159 5.439v0c-3.361 3.371-5.439 8.022-5.439 13.158s2.078 9.788 5.439 13.159v0c3.371 3.361 8.022 5.439 13.158 5.439s9.788-2.078 13.159-5.439v0c3.361-3.371 5.439-8.022 5.439-13.158s-2.078-9.788-5.439-13.159v0z" />
<glyph unicode="&#xe911;" d="M661.996 639.365h-195.523c-50.729 0-69.12-5.284-87.654-15.196-18.408-9.89-33.109-24.617-42.697-42.497l-0.27-0.552c-9.912-18.473-15.196-36.864-15.196-87.593v-195.523h-214.569c-36.864 0-50.176 3.83-63.754 11.059-13.368 7.216-24.057 17.905-31.075 30.872l-0.198 0.401c-7.209 13.517-11.059 26.829-11.059 63.754v449.823c0 36.864 3.85 50.176 11.059 63.754s17.613 24.105 31.252 31.273 26.911 11.059 63.775 11.059h449.843c36.864 0 50.237-3.85 63.754-11.059 13.368-7.216 24.057-17.905 31.075-30.872l0.198-0.401c7.209-13.517 11.059-26.89 11.059-63.754z" />
<glyph unicode="&#xe912;" d="M296.489 805.99c-0.15 9.838-8.161 17.756-18.020 17.756-0.022 0-0.045 0-0.067 0h0.003c-9.83 0-18.084-7.987-18.084-17.756v-78.725l-105.37 103.383c-3.285 3.222-7.79 5.21-12.759 5.21s-9.474-1.989-12.762-5.213l0.003 0.003c-3.441-3.277-5.284-7.782-5.284-12.493s2.048-9.277 5.284-12.554l105.37-103.424h-80.241c-9.994 0-18.084-7.926-18.084-17.674s8.151-17.756 18.084-17.756h124.006c2.482 0.007 4.846 0.503 7.004 1.397l-0.122-0.045c4.441 1.797 7.91 5.219 9.726 9.51l0.043 0.116c0.858 1.842 1.358 3.998 1.358 6.271 0 0.157-0.002 0.313-0.007 0.469l0.001-0.023 0.082 121.61z" />
<glyph unicode="&#xe913;" d="M468.070 597.996h449.843c36.864 0 50.176-3.85 63.754-11.121 13.358-7.195 24.046-17.856 31.075-30.792l0.198-0.399c7.209-13.517 11.059-26.89 11.059-63.754v-449.843c0-36.864-3.83-50.176-11.059-63.754s-17.756-24.084-31.273-31.273-26.87-11.059-63.754-11.059h-449.843c-36.864 0-50.237 3.83-63.754 11.059-13.368 7.216-24.057 17.905-31.075 30.872l-0.198 0.401c-7.209 13.517-11.059 26.87-11.059 63.754v449.843c0 36.864 3.85 50.237 11.059 63.754 7.127 13.271 18.022 24.166 31.273 31.273 13.517 7.209 26.89 11.059 63.754 11.059z" />
<glyph unicode="&#xe914;" d="M798.638 412.16h60.723l-60.211-299.827h-63.365l-36.393 185.037-37.356-185.037h-65.659l-59.802 299.827h64.799l30.884-191.754 39.69 191.754h61.522l35.369-190.403z" />
<glyph unicode="&#xe915;" d="M661.996 639.365h-195.584c-50.729 0-69.12-5.284-87.654-15.196-18.393-9.911-33.089-24.632-42.696-42.496l-0.272-0.553c-9.912-18.473-15.196-36.864-15.196-87.593v-195.584h-214.508c-36.864 0-50.237 3.83-63.754 11.059-13.368 7.216-24.057 17.905-31.075 30.872l-0.198 0.401c-7.209 13.558-11.059 26.931-11.059 63.795v449.843c0 36.864 3.85 50.237 11.059 63.754 7.208 13.374 17.89 24.070 30.853 31.095l0.4 0.198c13.537 7.188 26.911 11.039 63.775 11.039h449.843c36.864 0 50.237-3.85 63.754-11.059 13.368-7.216 24.057-17.905 31.075-30.872l0.198-0.401c7.209-13.517 11.059-26.89 11.059-63.754z" />
<glyph unicode="&#xe916;" d="M296.489 805.99c0 9.769-8.090 17.674-18.084 17.674s-18.084-7.926-18.084-17.674v-78.725l-105.37 103.383c-3.285 3.222-7.79 5.21-12.759 5.21s-9.474-1.989-12.762-5.213l0.003 0.003c-3.441-3.277-5.284-7.782-5.284-12.493s2.048-9.277 5.284-12.554l105.37-103.424h-80.179c-9.994 0-18.084-7.926-18.084-17.756s8.090-17.674 18.084-17.674h123.843c0.070-0.001 0.152-0.002 0.234-0.002 2.429 0 4.742 0.498 6.843 1.396l-0.113-0.043c4.441 1.797 7.91 5.219 9.726 9.51l0.043 0.116c0.858 1.842 1.358 3.998 1.358 6.271 0 0.157-0.002 0.313-0.007 0.469l0.001-0.023 0.082 121.528z" />
<glyph unicode="&#xe917;" d="M468.070 597.996h449.843c36.864 0 50.237-3.85 63.754-11.121 13.39-7.185 24.088-17.883 31.076-30.873l0.197-0.4c7.209-13.435 11.059-26.829 11.059-63.693v-449.823c0-36.864-3.83-50.237-11.059-63.754-7.216-13.368-17.905-24.057-30.872-31.075l-0.401-0.198c-13.517-7.209-26.87-11.059-63.754-11.059h-449.843c-36.864 0-50.237 3.83-63.754 11.059-13.368 7.216-24.057 17.905-31.075 30.872l-0.198 0.401c-7.209 13.517-11.059 26.87-11.059 63.754v449.843c0 36.864 3.85 50.237 11.059 63.754 7.127 13.271 18.022 24.166 31.273 31.273 13.517 7.209 26.89 11.059 63.754 11.059z" />
<glyph unicode="&#xe918;" d="M849.92 427.52c22.569 0 40.96-18.391 40.96-40.96s-18.391-40.96-40.96-40.96-40.96 18.391-40.96 40.96 18.391 40.96 40.96 40.96zM626.688 161.28h-129.925c-2.048 0-3.523 0.963-4.403 2.56s-0.881 3.441 0.082 4.956l134.636 225.69c0.975 1.381 2.565 2.271 4.362 2.271s3.387-0.891 4.351-2.255l0.011-0.017 78.479-131.523 52.634 53.76c0.896 0.935 2.155 1.516 3.55 1.516 0.019 0 0.038 0 0.057 0h0.161c1.434 0 2.806-0.614 3.686-1.761l124.928-146.022c1.434-0.881 2.253-2.458 2.253-4.157-0.046-2.747-2.284-4.956-5.037-4.956 0 0 0 0-0.001 0l-269.824 0.082z" />
<glyph unicode="&#xe919;" d="M112.394 952.566h445.44c36.454 0 49.766-3.768 63.119-10.957 13.239-7.141 23.825-17.727 30.77-30.569l0.196-0.397c7.127-13.353 10.957-26.563 10.957-63.119v-445.358c0-36.454-3.83-49.766-10.957-63.119-7.141-13.239-17.727-23.825-30.569-30.77l-0.397-0.196c-13.353-7.127-26.624-10.957-63.119-10.957h-445.44c-36.454 0-49.766 3.83-63.119 10.957-13.231 7.144-23.809 17.729-30.749 30.569l-0.196 0.397c-7.127 13.353-10.957 26.624-10.957 63.119v445.44c0 36.454 3.85 49.766 10.957 63.119 7.179 13.2 17.745 23.766 30.548 30.747l0.397 0.198c13.353 7.127 26.624 10.854 63.119 10.854z" />
<glyph unicode="&#xe91a;" d="M912.65-57.651h-445.379c-36.454 0-49.766 3.768-63.119 10.957-13.284 7.079-23.887 17.682-30.772 30.57l-0.193 0.396c-7.127 13.353-10.957 26.563-10.957 63.119v445.338c0 36.454 3.768 49.766 10.957 63.119 7.079 13.284 17.682 23.887 30.57 30.772l0.396 0.193c13.353 7.127 26.624 10.957 63.119 10.957h445.358c36.557 0 49.766-3.85 63.119-10.957 13.21-6.963 24.003-17.756 30.966-30.966 7.209-13.353 10.957-26.624 10.957-63.119v-445.358c0-36.557-3.768-49.766-10.957-63.119-7.079-13.284-17.682-23.887-30.57-30.772l-0.396-0.193c-13.353-7.209-26.563-10.957-63.119-10.957z" />
<glyph unicode="&#xe91b;" d="M366.715 735.437c-0.031 0-0.067 0-0.104 0-9.768 0-17.701-7.861-17.816-17.602v-77.835l-147.272 145.449c-3.268 3.193-7.742 5.163-12.677 5.163s-9.409-1.97-12.681-5.166l0.003 0.003c-3.207-3.155-5.196-7.54-5.202-12.389v-0.001c0.059-4.809 2.037-9.145 5.201-12.287l0.001-0.001 147.354-145.367h-79.36c-9.912 0-17.92-7.926-17.92-17.613s8.192-17.613 17.92-17.613h122.552c2.455 0.018 4.789 0.513 6.922 1.397l-0.122-0.045c4.391 1.791 7.824 5.171 9.643 9.409l0.044 0.115c0.855 1.921 1.353 4.162 1.353 6.519 0 0.070 0 0.139-0.001 0.209v-0.011 120.218c0 0 0 0.001 0 0.001 0 9.727-7.886 17.613-17.613 17.613-0.072 0-0.144 0-0.216-0.001h0.011zM661.996 161.833c9.83 0 17.818 7.844 17.818 17.613v77.763l147.354-145.367c3.25-3.198 7.713-5.172 12.636-5.172s9.386 1.974 12.639 5.174l-0.002-0.002c3.237 3.144 5.255 7.529 5.284 12.385v0.005c0 4.71-1.925 9.216-5.284 12.39l-147.456 145.449h79.36c9.912 0 17.92 7.844 17.92 17.613s-8.192 17.51-17.92 17.51h-122.552c-2.482-0.007-4.846-0.503-7.004-1.397l0.122 0.045c-4.328-1.843-7.731-5.159-9.64-9.306l-0.047-0.115c-0.829-1.985-1.323-4.29-1.352-6.706v-120.229c0-9.769 8.192-17.613 17.92-17.613zM455.148 368.681c-7.27-7.209-19.046-7.209-26.317 0s-7.27 19.128 0 26.624c3.371 3.361 8.022 5.439 13.158 5.439s9.788-2.078 13.159-5.439v0c3.369-3.424 5.449-8.125 5.449-13.312s-2.080-9.888-5.452-13.315l0.002 0.003zM524.247 437.432c-3.371-3.361-8.022-5.439-13.158-5.439s-9.788 2.078-13.159 5.439v0c-3.361 3.371-5.439 8.022-5.439 13.158s2.078 9.788 5.439 13.159v0c3.379 3.341 8.028 5.405 13.158 5.405s9.779-2.064 13.16-5.407l-0.002 0.002c3.361-3.371 5.439-8.022 5.439-13.158s-2.078-9.788-5.439-13.159v0zM593.060 506.327c-3.371-3.361-8.022-5.439-13.158-5.439s-9.788 2.078-13.159 5.439v0c-3.361 3.371-5.439 8.022-5.439 13.158s2.078 9.788 5.439 13.159v0c3.371 3.361 8.022 5.439 13.158 5.439s9.788-2.078 13.159-5.439v0c3.361-3.371 5.439-8.022 5.439-13.158s-2.078-9.788-5.439-13.159v0z" />
<glyph unicode="&#xe91c;" d="M362.004 256.635h195.584c50.729 0 69.12 5.284 87.654 15.196 18.408 9.89 33.109 24.617 42.697 42.497l0.27 0.552c9.912 18.473 15.196 36.864 15.196 87.593v195.523h214.508c36.864 0 50.237-3.85 63.754-11.059s24.084-17.818 31.273-31.273 11.059-26.829 11.059-63.754v-449.823c0-36.864-3.83-50.237-11.059-63.754-7.216-13.368-17.905-24.057-30.872-31.075l-0.401-0.198c-13.517-7.209-26.87-11.059-63.754-11.059h-449.843c-36.864 0-50.237 3.83-63.754 11.059s-24.003 17.818-31.273 31.273-11.059 26.87-11.059 63.754z" />
<glyph unicode="&#xe91d;" d="M899.891 199.434c0 9.769-8.090 17.674-18.084 17.674s-18.084-7.926-18.084-17.674v-78.725l-105.37 103.363c-3.296 3.232-7.815 5.226-12.8 5.226s-9.504-1.994-12.803-5.229l0.003 0.003c-3.256-3.163-5.278-7.581-5.284-12.471v-0.001c0.007-4.917 2.027-9.361 5.281-12.551l0.003-0.003 105.37-103.424h-80.159c-9.994 0-18.084-7.926-18.084-17.756s8.090-17.756 18.084-17.756h123.904c2.492 0.035 4.852 0.559 7.001 1.479l-0.12-0.046c4.412 1.794 7.869 5.171 9.724 9.409l0.045 0.115c0.856 1.921 1.354 4.164 1.354 6.522 0 0.098-0.001 0.195-0.003 0.292v-0.015l0.082 121.528z" />
<glyph unicode="&#xe91e;" d="M106.168 960h450.314c36.864 0 50.237-3.85 63.754-11.059 13.353-7.045 24.248-18.022 31.273-31.334 7.209-13.435 11.059-26.89 11.059-63.754v-450.232c0-36.966-3.83-50.319-11.059-63.836-7.185-13.39-17.883-24.088-30.873-31.076l-0.4-0.197c-13.517-7.209-26.87-11.059-63.754-11.059h-450.314c-36.864 0-50.319 3.83-63.754 11.059-13.39 7.185-24.088 17.883-31.076 30.873l-0.197 0.4c-7.291 13.496-11.141 26.849-11.141 63.816v450.232c0 36.864 3.85 50.319 11.059 63.754 7.045 13.353 18.022 24.248 31.334 31.334s26.89 11.080 63.775 11.080z" />
<glyph unicode="&#xe91f;" d="M210.534 694.886v-96.010c0-33.997-18.964-54.477-55.439-54.477-44.38 0-52.695 29.512-52.695 45.527 0 13.681 6.349 22.487 17.613 22.487 13.271 0 16.65-10.322 16.65-21.504 0-10.568 4.956-18.227 18.022-18.227 12.165 0 18.964 9.011 18.964 26.624v95.478c0 11.059 7.209 18.391 18.473 18.391s18.473-7.373 18.473-18.391zM244.777 563.773v124.969c0 16.384 8.561 21.606 21.606 21.606h56.566c31.048 0 56.074-15.36 56.074-51.364 0-29.491-20.48-51.364-56.32-51.364h-40.96v-44.073c0-11.059-7.27-18.473-18.473-18.473s-18.473 7.434-18.473 18.473zM281.743 682.004v-45.916h34.406c14.889 0 25.928 8.95 25.928 22.938 0 16.241-11.469 22.938-29.696 22.938zM553.82 618.516v-61.112c0.001-0.044 0.001-0.097 0.001-0.149 0-6.73-5.456-12.186-12.186-12.186-0.13 0-0.259 0.002-0.388 0.006h0.019c-10.65 0-13.517 6.554-15.831 20.951-10.568-13.271-25.19-21.832-48.169-21.832-57.201 0-79.114 39.444-79.114 84.89 0 54.804 34.243 84.951 84.48 84.951 41.042 0 62.874-24.576 62.874-38.953 0-12.902-9.421-16.241-17.367-16.241-18.227 0-11.469 25.436-47.514 25.436-25.436 0-45.527-16.65-45.527-57.672 0-31.949 15.77-54.006 45.998-54.006 19.599 0 36.721 13.271 38.502 33.116h-23.982c-7.844 0-16.63 2.867-16.63 14.131 0 9.011 5.202 14.131 14.397 14.131h45.527c10.793 0 15.114-5.366 15.114-15.524z" />
<glyph unicode="&#xe920;" d="M645.591 386.56h306.237c25.047 0 34.161-2.662 43.356-7.516 9.011-4.792 16.486-12.247 21.299-21.299 4.956-9.216 7.516-18.33 7.516-43.356v-306.237c0-25.047-2.662-34.161-7.516-43.356-4.792-9.011-12.247-16.486-21.299-21.299-9.216-4.956-18.33-7.516-43.356-7.516h-306.237c-25.047 0-34.161 2.662-43.356 7.516-9.104 4.915-16.385 12.195-21.164 21.026l-0.135 0.273c-4.956 9.216-7.516 18.33-7.516 43.356v306.258c0 25.047 2.662 34.161 7.516 43.356 4.792 9.011 12.247 16.486 21.299 21.299 9.216 4.956 18.33 7.516 43.356 7.516zM645.591 960h306.237c25.047 0 34.161-2.662 43.356-7.516 9.011-4.792 16.486-12.247 21.299-21.299 4.956-9.216 7.516-18.33 7.516-43.356v-306.237c0-25.047-2.662-34.161-7.516-43.356-4.792-9.011-12.247-16.486-21.299-21.299-9.216-4.956-18.33-7.516-43.356-7.516h-306.237c-25.047 0-34.161 2.662-43.356 7.516-9.104 4.915-16.385 12.195-21.164 21.026l-0.135 0.273c-4.956 9.216-7.516 18.33-7.516 43.356v306.258c0 25.047 2.662 34.161 7.516 43.356 4.792 9.011 12.247 16.486 21.299 21.299 9.196 4.936 18.309 7.496 43.356 7.496zM72.151 386.56h306.237c25.047 0 34.161-2.662 43.356-7.516 9.011-4.792 16.486-12.247 21.299-21.299 4.956-9.216 7.516-18.33 7.516-43.356v-306.237c0-25.047-2.662-34.161-7.516-43.356-4.792-9.011-12.247-16.486-21.299-21.299-9.216-4.956-18.33-7.516-43.356-7.516h-306.237c-25.047 0-34.161 2.662-43.356 7.516-9.104 4.915-16.385 12.195-21.164 21.026l-0.135 0.273c-4.936 9.196-7.496 18.309-7.496 43.356v306.258c0 25.047 2.662 34.161 7.516 43.356 4.792 9.011 12.247 16.486 21.299 21.299 9.216 4.956 18.33 7.516 43.356 7.516zM72.151 960h306.237c25.047 0 34.161-2.662 43.356-7.516 9.011-4.792 16.486-12.247 21.299-21.299 4.956-9.216 7.516-18.33 7.516-43.356v-306.237c0-25.047-2.662-34.161-7.516-43.356-4.792-9.011-12.247-16.486-21.299-21.299-9.216-4.956-18.33-7.516-43.356-7.516h-306.237c-25.047 0-34.161 2.662-43.356 7.516-9.104 4.915-16.385 12.195-21.164 21.026l-0.135 0.273c-4.936 9.196-7.496 18.309-7.496 43.356v306.258c0 25.047 2.662 34.222 7.516 43.356 4.952 9.065 12.214 16.327 21.006 21.142l0.273 0.137c9.196 4.854 18.309 7.516 43.356 7.516z" />
<glyph unicode="&#xe921;" d="M716.8 103.936c0-9.83 8.151-17.756 18.084-17.756 0.019 0 0.041 0 0.063 0 9.86 0 17.871 7.918 18.020 17.742v78.739l105.37-103.424c3.285-3.222 7.79-5.21 12.759-5.21s9.474 1.989 12.762 5.213l-0.003-0.003c3.305 3.17 5.361 7.622 5.366 12.553v0.001c0 4.71-1.925 9.216-5.366 12.554l-105.267 103.363h80.159c0.019 0 0.041 0 0.063 0 9.86 0 17.871 7.918 18.020 17.742v0.014c-0.081 9.824-8.063 17.757-17.899 17.757-0.065 0-0.13 0-0.195-0.001h-123.894c-0.063 0.001-0.137 0.001-0.211 0.001-7.391 0-13.737-4.474-16.476-10.862l-0.045-0.117c-0.855-1.921-1.353-4.162-1.353-6.519 0-0.070 0-0.139 0.001-0.209v0.011zM866.304 644.342c9.83 0 17.756 8.151 17.756 18.084 0 0.019 0 0.041 0 0.063 0 9.86-7.918 17.871-17.742 18.020h-78.739l103.424 105.267c3.198 3.311 5.169 7.825 5.169 12.8s-1.971 9.489-5.174 12.805l0.005-0.005c-3.198 3.254-7.646 5.27-12.564 5.27s-9.367-2.016-12.562-5.268l-103.365-105.434v80.138c0 0.043 0.001 0.094 0.001 0.144 0 9.844-7.928 17.836-17.747 17.939h-0.010c-9.814-0.034-17.757-7.998-17.757-17.817 0-0.065 0-0.13 0.001-0.194v0.010-123.904c0-2.314 0.471-4.71 1.352-6.881 1.797-4.441 5.219-7.91 9.51-9.726l0.116-0.043c1.97-0.906 4.275-1.434 6.703-1.434 0.034 0 0.068 0 0.102 0h121.523zM173.261 243.2c-9.83 0-17.756-8.151-17.756-18.084s7.926-18.084 17.756-18.084h78.725l-103.424-105.144c-3.232-3.296-5.226-7.815-5.226-12.8s1.994-9.504 5.229-12.803l-0.003 0.003c3.194-3.256 7.637-5.277 12.553-5.284h0.001c4.71 0 9.216 1.925 12.554 5.284l103.363 105.37v-80.159c0-9.994 7.926-18.084 17.756-18.084s17.756 8.233 17.756 18.084v123.904c0 0.038 0 0.084 0 0.13 0 7.39-4.474 13.736-10.861 16.476l-0.117 0.045c-1.97 0.906-4.275 1.434-6.703 1.434-0.034 0-0.068 0-0.102 0h-121.503zM297.656 804.475c-0.055 0.001-0.12 0.001-0.185 0.001-9.836 0-17.818-7.933-17.899-17.749v-78.733l-105.37 103.424c-3.311 3.198-7.825 5.169-12.8 5.169s-9.489-1.971-12.805-5.174l0.005 0.005c-3.237-3.194-5.242-7.63-5.243-12.534v0c0-4.71 1.925-9.216 5.284-12.554l105.37-103.363h-80.179c-9.994 0-18.084-7.926-18.084-17.756s8.233-17.756 18.084-17.756h123.904c2.482 0.007 4.846 0.503 7.004 1.397l-0.122-0.045c4.403 2.048 7.987 5.284 9.769 9.626 1.024 2.089 1.434 4.506 1.434 6.799v121.508c-0.081 9.824-8.063 17.757-17.899 17.757-0.065 0-0.13 0-0.195-0.001h0.010z" />
<glyph unicode="&#xe922;" glyph-name="user" d="M512 736c-87.986 0-160-72.014-160-160s72.014-160 160-160c87.986 0 160 72.014 160 160s-72.014 160-160 160zM512 672c53.398 0 96-42.602 96-96s-42.602-96-96-96c-53.398 0-96 42.602-96 96s42.602 96 96 96zM512 906.667c-252.935 0-458.667-205.731-458.667-458.667s205.731-458.667 458.667-458.667c252.935 0 458.667 205.731 458.667 458.667s-205.731 458.667-458.667 458.667zM512 842.667c218.347 0 394.667-176.319 394.667-394.667s-176.319-394.667-394.667-394.667c-218.347 0-394.667 176.319-394.667 394.667s176.319 394.667 394.667 394.667zM512 352c-109.627 0-181.956-23.799-226.667-70.167s-56.449-108.907-60-173.417c-0.029-0.511-0.046-1.11-0.046-1.712 0-17.074 13.371-31.024 30.214-31.951l0.082-0.004c0.513-0.029 1.113-0.046 1.717-0.046 17.044 0 30.976 13.326 31.946 30.127l0.004 0.086c3.24 58.86 13.764 103.044 42.167 132.5s80.090 50.583 180.583 50.583c100.495 0 152.18-21.128 180.583-50.583s38.928-73.64 42.167-132.5c0.974-16.887 14.906-30.213 31.95-30.213 0.604 0 1.204 0.017 1.799 0.050l-0.083-0.004c16.924 0.93 30.296 14.881 30.296 31.955 0 0.602-0.017 1.201-0.049 1.795l0.004-0.083c-3.55 64.51-15.289 127.048-60 173.417s-117.038 70.167-226.667 70.167z" />
<glyph unicode="&#xe924;" glyph-name="lock" d="M224 531.004c-47.563-3.554-78.536-12.518-101.176-35.162-37.49-37.491-37.49-97.83-37.49-218.509s0-181.018 37.49-218.509c37.49-37.491 97.83-37.491 218.51-37.491h341.333c120.678 0 181.018 0 218.509 37.491s37.491 97.83 37.491 218.509c0 120.678 0 181.018-37.491 218.509-22.639 22.643-53.611 31.607-101.175 35.162v87.663c0 159.058-128.943 288-288 288s-288-128.942-288-288v-87.663zM288 618.667c0 123.712 100.288 224 224 224s224-100.288 224-224v-85.487c-16.341 0.154-34.069 0.154-53.333 0.154h-341.333c-19.264 0-36.992 0-53.333-0.154v85.487zM597.333 277.333c0-47.13-38.204-85.333-85.333-85.333s-85.333 38.204-85.333 85.333c0 47.13 38.204 85.333 85.333 85.333s85.333-38.204 85.333-85.333z" />
<glyph unicode="&#xe925;" glyph-name="key" d="M416.292 875.398c0.404-17.669-13.591-32.319-31.26-32.723-120.393-2.752-177.097-14.897-214.524-52.325-24.337-24.337-38.3-57.262-45.641-111.865-7.465-55.524-7.533-128.484-7.533-230.058 0-101.568 0.068-174.528 7.533-230.054 7.342-54.605 21.305-87.526 45.641-111.863s57.262-38.302 111.865-45.645c55.524-7.462 128.484-7.531 230.058-7.531 101.568 0 174.528 0.068 230.054 7.531 54.605 7.343 87.526 21.308 111.863 45.645 37.431 37.427 49.574 94.131 52.326 214.524 0.405 17.668 15.053 31.663 32.721 31.258 17.668-0.401 31.667-15.053 31.262-32.721-2.697-118.033-13.329-200.593-71.053-258.317-38.212-38.208-86.891-55.522-148.591-63.817-60.284-8.102-137.545-8.102-236.139-8.102h-4.894c-98.594 0-175.855 0-236.137 8.102-61.7 8.294-110.383 25.609-148.592 63.817s-55.52 86.891-63.816 148.591c-8.105 60.284-8.104 137.545-8.104 236.139v4.894c0 98.594-0.001 175.855 8.104 236.137 8.295 61.7 25.606 110.383 63.816 148.592 57.723 57.723 140.282 68.355 258.316 71.053 17.669 0.404 32.319-13.591 32.723-31.26zM736.452 842.667c-94.131 0-170.219-75.962-170.219-169.39 0-20.977 4.813-39.376 9.749-52.658 2.449-6.587 4.868-11.743 6.592-15.118 0.858-1.682 1.536-2.904 1.946-3.623l0.401-0.689c7.906-12.596 6.037-28.986-4.497-39.479l-244.636-243.634c-0.631-0.627-1.844-2.069-2.968-4.083-1.102-1.975-1.763-3.866-2.023-5.453-0.236-1.446-0.152-2.633 0.228-3.814 0.372-1.161 1.415-3.537 4.763-6.869l27.057-26.948c0.809-0.602 2.068-1.425 3.66-2.202 2.082-1.020 4.099-1.66 5.813-1.916 1.625-0.239 2.712-0.102 3.483 0.128 0.651 0.196 2.078 0.747 4.174 2.833l32.919 32.785c12.486 12.437 32.677 12.437 45.161 0 4.907-4.881 8.994-6.916 11.908-7.804 2.944-0.9 5.862-0.994 8.87-0.418 6.669 1.276 12.732 5.687 15.522 9.216 3.861 5.577 3.738 10.419 1.89 15.94-1.028 3.059-2.505 5.82-3.793 7.851-0.619 0.977-1.126 1.673-1.399 2.031-0.073 0.098-0.158 0.209-0.158 0.209-10.654 12.71-9.839 31.492 1.946 43.23l9.404 9.365c12.489 12.433 32.678 12.433 45.163 0 16.384-16.316 27.243-16.111 32.474-15.121 7.39 1.404 14.272 6.716 17.92 11.413 4.804 6.878 4.826 13.022 3.477 18.671-0.742 3.098-1.894 5.803-2.867 7.706-0.474 0.922-0.853 1.562-1.041 1.86l-0.043 0.064-1.216 1.698-1.126 2.244c-0.405 0.811-1.054 1.788-3.123 4.070-0.068 0.077-0.196 0.209-0.375 0.397-1.579 1.664-7.134 7.505-10.543 13.623-5.837 10.462-7.454 23.194-2.389 36.198 3.9 10.018 11.098 18.274 17.745 24.896l28.215 28.1c11.695 11.644 30.323 12.489 43.021 1.95 5.103-4.237 16-8.802 31.548-12.023 14.605-3.021 29.107-4.019 37.367-4.019 94.131 0 170.214 75.964 170.214 169.392s-76.083 169.39-170.214 169.39zM561.007 303.945c-1.331-12.169-5.662-25.199-14.878-38.046l-0.218-0.303-0.226-0.299c-11.418-15.164-31.083-29.295-54.81-33.839-16.772-3.213-34.688-1.434-51.78 6.848l-13.957-13.901c-19.3-19.221-42.348-23.855-62.177-20.924-18.237 2.692-33.276 11.546-42.314 19.26-0.623 0.533-1.225 1.088-1.804 1.664l-28.216 28.1c-20.562 20.48-26.557 44.535-22.991 66.359 3.239 19.814 13.879 35.482 22.991 44.557l228.32 227.386c-0.973 2.347-1.963 4.85-2.948 7.502-6.818 18.331-13.764 44.425-13.764 74.967 0 129.021 104.986 233.39 234.219 233.39 129.229 0 234.214-104.369 234.214-233.39s-104.986-233.392-234.214-233.392c-12.122 0-31.006 1.348-50.342 5.35-10.27 2.125-22.157 5.291-33.698 10.197l-6.199-6.174c1.655-2.308 3.345-4.937 4.945-7.889 0.179-0.277 0.371-0.576 0.567-0.896 1.007-1.621 2.283-3.802 3.648-6.468 2.697-5.265 5.952-12.809 8.154-22.003 4.506-18.85 4.553-45.389-13.939-71.168l-0.218-0.303-0.222-0.299c-10.522-13.969-30.315-30.946-57.34-36.075-10.082-1.911-20.416-2.039-30.801-0.213zM736.452 711.529c-21.41 0-38.541-17.25-38.541-38.252s17.131-38.252 38.541-38.252c21.406 0 38.541 17.25 38.541 38.252s-17.135 38.252-38.541 38.252zM633.911 673.277c0 56.596 46.033 102.252 102.541 102.252s102.541-45.657 102.541-102.252c0-56.596-46.033-102.252-102.541-102.252s-102.541 45.657-102.541 102.252z" />
<glyph unicode="&#xe926;" d="M960.045 438.051c0 36.835-3.050 63.715-9.651 91.59h-429.206v-166.256h251.936c-5.078-41.318-32.509-103.539-93.462-145.35l-0.854-5.568 135.709-103.027 9.402-0.918c86.349 78.15 136.128 193.139 136.128 329.53z" />
<glyph unicode="&#xe927;" d="M521.162 0.006c123.427 0 227.043 39.824 302.73 108.518l-144.256 109.514c-38.602-26.384-90.413-44.8-158.474-44.8-120.886 0-223.49 78.15-260.064 186.166l-5.361-0.445-141.11-107.024-1.845-5.027c75.174-146.346 229.587-246.902 408.38-246.902z" />
<glyph unicode="&#xe928;" d="M261.108 359.392c-9.651 27.875-15.236 57.744-15.236 88.605 0 30.864 5.585 60.73 14.728 88.605l-0.256 5.939-142.878 108.74-4.675-2.179c-30.983-60.731-48.761-128.926-48.761-201.105 0-72.176 17.778-140.371 48.761-201.101l148.316 112.496z" />
<glyph unicode="&#xe929;" d="M521.165 722.774c85.84 0 143.744-36.338 176.762-66.704l129.014 123.45c-79.235 72.178-182.349 116.48-305.776 116.48-178.797 0-333.21-100.55-408.384-246.896l147.809-112.5c37.083 108.018 139.685 186.17 260.574 186.17z" />
<glyph unicode="&#xe92a;" glyph-name="facebook" d="M512 960c-282.8 0-512-229.2-512-512s229.2-512 512-512 512 229.2 512 512-229.2 512-512 512zM831.6 128.6c-41.6-41.6-89.8-74.2-143.6-96.8-55.6-23.6-114.8-35.4-176-35.4-61 0-120.2 12-176 35.4-53.8 22.8-102.2 55.4-143.6 96.8-41.6 41.6-74.2 89.8-96.8 143.6-23.6 55.6-35.6 114.8-35.6 175.8s12 120.2 35.4 176c22.8 53.8 55.4 102.2 96.8 143.6 41.8 41.6 90 74.2 143.8 97 55.8 23.4 115 35.4 176 35.4s120.2-12 176-35.4c53.8-22.8 102.2-55.4 143.6-96.8 41.6-41.6 74.2-89.8 96.8-143.6 23.6-55.6 35.4-114.8 35.4-176 0-61-12-120.2-35.4-176-22.8-53.8-55.4-102.2-96.8-143.6zM579.6 622.6c20.6 0 42.6-6.4 42.6-6.4l13.2 78.4c0 0-28 9.6-94.8 9.6-41 0-64.8-15.6-82.2-38.6-16.4-21.8-17-56.8-17-79.4v-51.4h-53v-76.6h53v-266h99.2v266h78.6l5.8 76.6h-84.4v59.8c0 20.6 18.4 28 39 28z" />
<glyph unicode="&#xe92b;" glyph-name="dropbox" d="M512.614 332.95l-214.374-179.164-93.44 60.297v-67.618l307.2-184.864 307.2 184.864v67.618l-92.826-60.297-213.76 179.164zM1024 733.533l-301.21 200.867-210.79-179.687 303.718-191.558 208.282 170.379zM512 371.596l210.79-179.687 301.21 200.867-208.282 170.378-303.718-191.558zM0 392.776l301.21-200.867 210.79 179.687-303.718 191.558-208.282-170.378zM512 754.713l-303.718-191.558-208.282 170.379 301.21 200.867 210.79-179.687z" />
<glyph unicode="&#xe92c;" glyph-name="phone" d="M194.667 874.667c-20.486 0-37.61 1.372-58.083-8.5-16.4-7.908-27.748-18.471-36.833-34.25-10.749-18.67-11.141-35.935-12.5-54.5-1.26-17.211-1.917-34.564-1.917-52.083 0-388.302 315.697-704 704-704 17.516 0 34.865 0.655 52.083 1.917 18.561 1.361 35.833 1.757 54.5 12.5 15.792 9.090 26.346 20.439 34.25 36.833 9.881 20.479 8.5 37.599 8.5 58.083v120.167c0 17.2 1.121 30.786-5.667 48.5v0.085c-5.012 13.044-13.144 24.605-23.667 33.748-14.358 12.48-27.481 16.029-43.667 21.917l-136.833 49.75c-18.836 6.847-32.874 13.577-54.583 12.167-15.77-1.024-30.88-6.38-43.75-15.5-17.757-12.581-24.438-26.644-34.75-43.833l-11.917-19.917c-76.746 42.696-139.337 105.322-182.083 182.083l19.917 11.917c17.187 10.312 31.254 16.999 43.833 34.75 9.122 12.872 14.475 27.98 15.5 43.75 1.41 21.708-5.32 35.75-12.167 54.583l-49.75 136.833c-5.887 16.189-9.445 29.314-21.917 43.667-9.164 10.547-20.791 18.658-33.833 23.667-17.75 6.815-31.273 5.667-48.5 5.667zM173.667 789.333c-2.909-1.403 0.514 0 21 0h120.167c17.227 0 20.899-1.145 17.917 0-2.096 2.412 0.279-0.643 6.167-16.833l49.75-136.833c6.849-18.839 7.001-23.67 7.25-19.833 0 0-0.083 0-0.083 0 2.225 3.14-0.897-0.605-18.083-10.917l-58.333-35c-12.508-7.59-20.737-21.135-20.737-36.602 0-6.397 1.408-12.465 3.93-17.912l-0.11 0.264c55.594-122.525 154.629-221.633 277.25-277.167 5.165-2.394 11.211-3.791 17.582-3.791 15.455 0 28.99 8.216 36.478 20.519l0.107 0.189 35 58.333c0.013 0 0.028 0 0.043 0s0.030 0 0.045 0h-0.002c10.313 17.191 13.981 20.314 10.833 18.083 0 0 0 0.085 0 0.085-3.84-0.247 0.994-0.401 19.833-7.25l136.833-49.75c16.19-5.889 19.254-8.27 16.833-6.167-1.152 2.996 0-0.688 0-17.917v-120.169c0-20.484-1.408-23.917 0-21 1.763 1.015 0.401 0.028-18.167-1.333-15.142-1.11-30.396-1.667-45.835-1.667-342.185 0-618.667 276.482-618.667 618.667 0 15.438 0.558 30.776 1.667 45.917 1.359 18.565 2.353 19.854 1.333 18.083z" />
<glyph unicode="&#xe92d;" glyph-name="password" d="M443.733 960c-131.555 0-238.933-107.379-238.933-238.933v-170.667h-102.4c-56.15 0-102.4-46.251-102.4-102.4v-409.6c0-56.15 46.251-102.4 102.4-102.4h682.667c56.15 0 102.4 46.25 102.4 102.4v48.267c75.406 17.635 136.533 75.96 136.533 156.533s-61.127 138.898-136.533 156.533v48.267c0 56.149-46.25 102.4-102.4 102.4h-102.4v170.667c0 131.555-107.379 238.933-238.933 238.933zM443.733 891.733c94.66 0 170.667-76.006 170.667-170.667v-170.667h-341.333v170.667c0 94.66 76.006 170.667 170.667 170.667zM102.4 482.133h682.667c19.257 0 34.133-14.878 34.133-34.133v-34.133h-238.933c-93.852 0-170.667-76.814-170.667-170.667s76.815-170.667 170.667-170.667h238.933v-34.133c0-19.258-14.876-34.133-34.133-34.133h-682.667c-19.256 0-34.133 14.876-34.133 34.133v409.6c0 19.255 14.878 34.133 34.133 34.133zM580.267 345.6h273.067c56.961 0 102.4-45.441 102.4-102.4 0-56.961-45.439-102.4-102.4-102.4h-273.067c-56.959 0-102.4 45.439-102.4 102.4 0 56.958 45.442 102.4 102.4 102.4zM546.133 277.333v-68.267h68.267v68.267zM682.667 277.333v-68.267h68.267v68.267zM819.2 277.333v-68.267h68.267v68.267z" />
<glyph unicode="&#xe92e;" glyph-name="down-arrow" d="M298.667 565.333c-0.023 0-0.051 0-0.078 0-8.817 0-16.801-3.566-22.589-9.334l0.001 0.001c-5.814-5.795-9.412-13.811-9.412-22.667s3.598-16.872 9.411-22.666l213.334-213.334c5.795-5.814 13.811-9.411 22.667-9.411s16.872 3.597 22.666 9.41l213.334 213.334c5.814 5.795 9.412 13.811 9.412 22.667s-3.598 16.872-9.411 22.666l-0.001 0.001c-5.795 5.814-13.811 9.412-22.667 9.412s-16.872-3.598-22.666-9.411l-190.668-190.668-190.667 190.667c-5.787 5.767-13.771 9.333-22.588 9.333-0.028 0-0.055 0-0.083 0h0.004z" />
<glyph unicode="&#xe92f;" glyph-name="hamburger" d="M213.333 704c-23.564 0-42.667-19.103-42.667-42.667v0c0-23.564 19.103-42.667 42.667-42.667v0h597.333c23.564 0 42.667 19.103 42.667 42.667v0c0 23.564-19.103 42.667-42.667 42.667v0zM213.333 490.667c-23.564 0-42.667-19.103-42.667-42.667v0c0-23.564 19.103-42.667 42.667-42.667v0h597.333c23.564 0 42.667 19.103 42.667 42.667v0c0 23.564-19.103 42.667-42.667 42.667v0zM213.333 277.333c-23.564 0-42.667-19.103-42.667-42.667v0c0-23.564 19.103-42.667 42.667-42.667v0h597.333c23.564 0 42.667 19.103 42.667 42.667v0c0 23.564-19.103 42.667-42.667 42.667v0z" />
<glyph unicode="&#xe930;" glyph-name="email" d="M133.468 156.836c-11.804 0-22.842 3.102-32.27 8.554l278.098 242.364 25.958-22.588c21.726-18.88 48.92-28.44 75.86-28.44 27.072 0 54.266 9.56 75.992 28.44l25.946 22.588 94.148-82.076c10.648 17.942 23.878 34.108 39.226 48.076l-86.186 75.094 263.714 230.072v-254.168c24.52-4.472 47.512-13.24 68.272-25.5v311.080c0 8.808-0.86 17.524-2.472 25.958-4.35 21.85-14.032 41.844-27.556 58.362-2.86 3.6-5.842 6.822-9.080 10.044-23.956 24.092-57.608 39.12-94.364 39.12h-695.286c-36.754 0-70.272-15.028-94.364-39.12-3.224-3.222-6.204-6.444-9.064-10.044-13.536-16.518-23.218-36.512-27.434-58.362-1.746-8.434-2.606-17.15-2.606-25.958v-488.324c0-18.734 3.974-36.742 11.052-53.004 6.566-15.524 16.262-29.57 28.052-41.346 2.982-2.982 5.962-5.72 9.186-8.448 23.098-19.122 52.908-30.672 85.178-30.672h560.962c-16.236 20.064-28.872 43.134-36.824 68.3h-524.138zM87.394 756.406c11.924 11.912 27.946 19.122 46.074 19.122h695.29c18.13 0 34.284-7.212 46.074-19.122 2.094-2.122 4.084-4.486 5.842-6.836l-364.418-317.604c-10.058-8.81-22.48-13.162-35.142-13.162-12.542 0-24.952 4.352-35.144 13.162l-364.27 317.738c1.612 2.35 3.6 4.58 5.694 6.702zM68.272 222.006v457.036l263.728-230.062-263.594-229.82c-0.134 0.872-0.134 1.852-0.134 2.846zM856.57 387.032c-92.47 0-167.404-74.96-167.404-167.43 0-92.456 74.934-167.416 167.404-167.416 92.484 0 167.43 74.96 167.43 167.416 0 92.472-74.946 167.43-167.43 167.43zM882.46 139.528h-40.662v112.842h-0.484l-29.488-13.926-6.152 35.64 41.308 18.882h35.48v-153.438z" />
<glyph unicode="&#xe931;" glyph-name="close" d="M225.83 734.17c16.663 16.662 43.677 16.662 60.34 0l225.83-225.831 225.83 225.831c16.661 16.662 43.678 16.662 60.339 0s16.661-43.677 0-60.34l-225.83-225.83 225.83-225.83c16.661-16.661 16.661-43.678 0-60.339s-43.678-16.661-60.339 0l-225.83 225.83-225.83-225.83c-16.663-16.661-43.677-16.661-60.34 0s-16.662 43.678 0 60.339l225.831 225.83-225.831 225.83c-16.662 16.663-16.662 43.677 0 60.34z" />
<glyph unicode="&#xe932;" glyph-name="address" d="M511.89 928.124c-194.025 0-351.968-157.943-351.969-351.968 0-341.4 332.126-600.945 332.126-600.945 5.42-4.354 12.383-6.988 19.961-6.988s14.541 2.634 20.023 7.036l-0.063-0.049c0 0 332.127 259.545 332.126 600.945 0 194.025-158.18 351.968-352.205 351.968zM511.89 864.109c159.437 0 288.189-128.516 288.189-287.953 0.001-279.293-252.903-499.955-287.953-529.843-34.882 29.738-288.189 250.441-288.189 529.843 0 159.437 128.516 287.953 287.953 287.953zM511.89 736.077c-87.986 0-159.921-71.934-159.921-159.921s71.934-160.158 159.921-160.158 160.158 72.17 160.157 160.158c0 87.986-72.171 159.921-160.157 159.921zM511.89 672.062c53.398 0 96.142-42.507 96.142-95.906s-42.743-96.142-96.142-96.142c-53.399 0-95.906 42.743-95.906 96.142s42.507 95.906 95.906 95.906z" />
<glyph unicode="&#xea8f;" glyph-name="google-drive" d="M438 320l-184.6-320h580.6l184.6 320zM992.4 384l-295.6 512h-369.6l295.6-512zM290.2 832l-290.2-502.8 184.8-320 290.2 502.8z" />
</font>
</defs>
</svg>
