<?xml version="1.0" encoding="UTF-8" standalone="no"?>
<!-- Uploaded to: SVG Repo, www.svgrepo.com, Generator: SVG Repo Mixer Tools -->

<svg
   width="800px"
   height="800px"
   viewBox="0 0 15 15"
   fill="none"
   version="1.1"
   id="svg1"
   sodipodi:docname="password.svg"
   inkscape:version="1.3.2 (091e20e, 2023-11-25)"
   xmlns:inkscape="http://www.inkscape.org/namespaces/inkscape"
   xmlns:sodipodi="http://sodipodi.sourceforge.net/DTD/sodipodi-0.dtd"
   xmlns="http://www.w3.org/2000/svg"
   xmlns:svg="http://www.w3.org/2000/svg">
  <defs
     id="defs1" />
  <sodipodi:namedview
     id="namedview1"
     pagecolor="#ffffff"
     bordercolor="#000000"
     borderopacity="0.25"
     inkscape:showpageshadow="2"
     inkscape:pageopacity="0.0"
     inkscape:pagecheckerboard="0"
     inkscape:deskcolor="#d1d1d1"
     inkscape:zoom="0.295"
     inkscape:cx="398.30508"
     inkscape:cy="400"
     inkscape:window-width="1536"
     inkscape:window-height="449"
     inkscape:window-x="0"
     inkscape:window-y="25"
     inkscape:window-maximized="0"
     inkscape:current-layer="svg1" />
  <path
     style="color:#000000;fill:#000000;-inkscape-stroke:none"
     d="M 6.5,0 C 4.5729303,0 3,1.5729303 3,3.5 V 6 H 1.5 C 0.67749302,6 0,6.6774986 0,7.5 v 6 C 0,14.322512 0.67750509,15 1.5,15 h 10 C 12.322503,15 13,14.322503 13,13.5 V 12.792969 C 14.104575,12.534648 15,11.680269 15,10.5 15,9.3197508 14.104579,8.4653563 13,8.2070313 V 7.5 C 13,6.6775076 12.322515,6 11.5,6 H 10 V 3.5 C 10,1.5729303 8.4270697,0 6.5,0 Z m 0,1 C 7.886627,1 9,2.113373 9,3.5 V 6 H 4 V 3.5 C 4,2.113373 5.113373,1 6.5,1 Z m -5,6 h 10 C 11.782084,7 12,7.2179335 12,7.5 V 8 H 8.5 C 7.1252116,8 6,9.1252116 6,10.5 6,11.874811 7.1252206,13 8.5,13 H 12 v 0.5 C 12,13.782096 11.782096,14 11.5,14 H 1.5 C 1.217926,14 1,13.782087 1,13.5 v -6 C 1,7.2179425 1.2179381,7 1.5,7 Z m 7,2 h 4 c 0.834387,0 1.5,0.6656416 1.5,1.5 0,0.834396 -0.665604,1.5 -1.5,1.5 h -4 C 7.6656416,12 7,11.334387 7,10.5 7,9.6656506 7.6656506,9 8.5,9 Z M 8,10 v 1 h 1 v -1 z m 2,0 v 1 h 1 v -1 z m 2,0 v 1 h 1 v -1 z"
     id="path1" />
</svg>
