<?xml version="1.0" encoding="UTF-8" standalone="no"?>
<svg
   width="900"
   height="900"
   viewBox="0 0 900 900"
   version="1.1"
   id="svg12"
   sodipodi:docname="pdfconv_logo.svg"
   inkscape:version="1.3.2 (091e20e, 2023-11-25)"
   xmlns:inkscape="http://www.inkscape.org/namespaces/inkscape"
   xmlns:sodipodi="http://sodipodi.sourceforge.net/DTD/sodipodi-0.dtd"
   xmlns:xlink="http://www.w3.org/1999/xlink"
   xmlns="http://www.w3.org/2000/svg"
   xmlns:svg="http://www.w3.org/2000/svg">
  <sodipodi:namedview
     id="namedview12"
     pagecolor="#ffffff"
     bordercolor="#000000"
     borderopacity="0.25"
     inkscape:showpageshadow="2"
     inkscape:pageopacity="0.0"
     inkscape:pagecheckerboard="0"
     inkscape:deskcolor="#d1d1d1"
     inkscape:zoom="0.26222222"
     inkscape:cx="448.09322"
     inkscape:cy="450"
     inkscape:window-width="1536"
     inkscape:window-height="449"
     inkscape:window-x="0"
     inkscape:window-y="25"
     inkscape:window-maximized="0"
     inkscape:current-layer="svg12" />
  <defs
     id="defs3">
    <radialGradient
       id="swirlGrad"
       cx="50%"
       cy="50%"
       r="50%">
      <stop
         offset="0%"
         stop-color="#B78BDD"
         stop-opacity="0.95"
         id="stop1" />
      <stop
         offset="55%"
         stop-color="#8B58B6"
         stop-opacity="0.98"
         id="stop2" />
      <stop
         offset="100%"
         stop-color="#6E3AA3"
         stop-opacity="1"
         id="stop3" />
    </radialGradient>
    <filter
       id="soft"
       x="-0.0046368019"
       y="-0.0046368019"
       width="1.0092736"
       height="1.0092736">
      <feGaussianBlur
         in="SourceGraphic"
         stdDeviation="0.6"
         id="feGaussianBlur3" />
    </filter>
    <style
       id="style3">
      @font-face {
        font-family: 'Inter';
        src: local('Inter'), local('Inter-Regular');
      }
      .title { font-family: Inter, system-ui, -apple-system, Segoe UI, Roboto, Ubuntu, Cantarell, 'Helvetica Neue', Arial, sans-serif;
               font-size: 120px; letter-spacing: 2px; fill: #6E3AA3; font-weight: 500; }
    </style>
    <radialGradient
       inkscape:collect="always"
       xlink:href="#swirlGrad"
       id="radialGradient13"
       cx="33.432761"
       cy="21.758822"
       r="104.44235"
       gradientTransform="scale(0.82683526,1.0915112)"
       fx="33.432761"
       fy="21.758822"
       gradientUnits="userSpaceOnUse" />
    <radialGradient
       inkscape:collect="always"
       xlink:href="#swirlGrad"
       id="radialGradient14"
       cx="33.432761"
       cy="21.758822"
       r="104.44235"
       gradientTransform="matrix(0.58466082,0.58466082,-0.771815,0.771815,0,0)"
       fx="33.432761"
       fy="21.758822"
       gradientUnits="userSpaceOnUse" />
    <radialGradient
       inkscape:collect="always"
       xlink:href="#swirlGrad"
       id="radialGradient15"
       cx="33.432761"
       cy="21.758822"
       r="104.44235"
       gradientTransform="matrix(0,0.82683526,-1.0915112,0,0,0)"
       fx="33.432761"
       fy="21.758822"
       gradientUnits="userSpaceOnUse" />
    <radialGradient
       inkscape:collect="always"
       xlink:href="#swirlGrad"
       id="radialGradient16"
       cx="33.432761"
       cy="21.758822"
       r="104.44235"
       gradientTransform="matrix(-0.58466082,0.58466082,-0.771815,-0.771815,0,0)"
       fx="33.432761"
       fy="21.758822"
       gradientUnits="userSpaceOnUse" />
    <radialGradient
       inkscape:collect="always"
       xlink:href="#swirlGrad"
       id="radialGradient17"
       cx="33.432761"
       cy="21.758822"
       r="104.44235"
       gradientTransform="scale(-0.82683526,-1.0915112)"
       fx="33.432761"
       fy="21.758822"
       gradientUnits="userSpaceOnUse" />
    <radialGradient
       inkscape:collect="always"
       xlink:href="#swirlGrad"
       id="radialGradient18"
       cx="33.432761"
       cy="21.758822"
       r="104.44235"
       gradientTransform="matrix(-0.58466082,-0.58466082,0.771815,-0.771815,0,0)"
       fx="33.432761"
       fy="21.758822"
       gradientUnits="userSpaceOnUse" />
    <radialGradient
       inkscape:collect="always"
       xlink:href="#swirlGrad"
       id="radialGradient19"
       cx="33.432761"
       cy="21.758822"
       r="104.44235"
       gradientTransform="matrix(0,-0.82683526,1.0915112,0,0,0)"
       fx="33.432761"
       fy="21.758822"
       gradientUnits="userSpaceOnUse" />
    <radialGradient
       inkscape:collect="always"
       xlink:href="#swirlGrad"
       id="radialGradient20"
       cx="33.432761"
       cy="21.758822"
       r="104.44235"
       gradientTransform="matrix(0.58466082,-0.58466082,0.771815,0.771815,0,0)"
       fx="33.432761"
       fy="21.758822"
       gradientUnits="userSpaceOnUse" />
  </defs>
  <rect
     width="100%"
     height="100%"
     fill="white"
     id="rect3" />
  <!-- Swirl made of 8 rotated petals -->
  <g
     transform="translate(450,370)"
     id="g12">
    <!-- one petal shape -->
    <defs
       id="defs4">
      <path
         id="petal"
         d="M120,0                            C120,-20 90,-38 60,-38                            C30,-38 5,-20 5,0                            C5,25 35,43 70,50                            C100,56 120,70 120,92                            C120,120 92,145 60,145                            C20,145 -20,120 -40,92                            C-60,65 -65,35 -60,5                            C-50,-55 10,-95 70,-95                            C95,-95 120,-70 120,0 Z" />
    </defs>
    <!-- draw rotated petals -->
    <g
       fill="url(#swirlGrad)"
       filter="url(#soft)"
       opacity="0.95"
       id="g11">
      <path
         id="use4"
         d="M 114,0 C 114,-19 85.5,-36.1 57,-36.1 28.5,-36.1 4.75,-19 4.75,0 4.75,23.75 33.25,40.85 66.5,47.5 95,53.2 114,66.5 114,87.4 114,114 87.4,137.75 57,137.75 19,137.75 -19,114 -38,87.4 -57,61.75 -61.75,33.25 -57,4.75 c 9.5,-57 66.5,-95 123.5,-95 23.75,0 47.5,23.75 47.5,90.25 z"
         style="fill:url(#radialGradient13);stroke-width:0.95" />
      <path
         id="use5"
         d="M 80.610173,80.610173 C 94.045202,67.175144 85.984185,34.931075 65.831641,14.778532 45.679098,-5.3740115 16.793786,-10.076272 3.3587572,3.3587572 -13.435029,20.152543 -5.3740115,52.396612 13.435029,80.610173 29.557063,104.79322 33.587572,127.63277 18.80904,142.41131 0,161.22035 -35.602826,159.20509 -57.098873,137.70905 -83.96893,110.83899 -94.045202,67.175144 -88.67119,34.931075 -83.96893,3.3587572 -67.175144,-20.152543 -43.663844,-36.946329 3.3587572,-70.533901 70.533901,-57.098873 110.83899,-16.793786 127.63277,0 127.63277,33.587572 80.610173,80.610173 Z"
         style="fill:url(#radialGradient14);stroke-width:0.95" />
      <path
         id="use6"
         d="M 0,114 C 19,114 36.1,85.5 36.1,57 36.1,28.5 19,4.75 0,4.75 c -23.75,0 -40.85,28.5 -47.5,61.75 -5.7,28.5 -19,47.5 -39.9,47.5 -26.6,0 -50.35,-26.6 -50.35,-57 0,-38 23.75,-76 50.35,-95 25.65,-19 54.15,-23.75 82.65,-19 57,9.5 95,66.5 95,123.5 C 90.25,90.25 66.5,114 0,114 Z"
         style="fill:url(#radialGradient15);stroke-width:0.95" />
      <path
         id="use7"
         d="m -80.610173,80.610173 c 13.435029,13.435029 45.679098,5.374012 65.831641,-14.778532 C 5.3740115,45.679098 10.076272,16.793786 -3.3587572,3.3587572 -20.152543,-13.435029 -52.396612,-5.3740115 -80.610173,13.435029 -104.79322,29.557063 -127.63277,33.587572 -142.41131,18.80904 -161.22035,0 -159.20509,-35.602826 -137.70905,-57.098873 c 26.87006,-26.870057 70.533906,-36.946329 102.777975,-31.572317 31.5723178,4.70226 55.083618,21.496046 71.877404,45.007346 C 70.533901,3.3587572 57.098873,70.533901 16.793786,110.83899 0,127.63277 -33.587572,127.63277 -80.610173,80.610173 Z"
         style="fill:url(#radialGradient16);stroke-width:0.95" />
      <path
         id="use8"
         d="m -114,0 c 0,19 28.5,36.1 57,36.1 28.5,0 52.25,-17.1 52.25,-36.1 0,-23.75 -28.5,-40.85 -61.75,-47.5 -28.5,-5.7 -47.5,-19 -47.5,-39.9 0,-26.6 26.6,-50.35 57,-50.35 38,0 76,23.75 95,50.35 19,25.65 23.75,54.15 19,82.65 -9.5,57 -66.5,95 -123.5,95 C -90.25,90.25 -114,66.5 -114,0 Z"
         style="fill:url(#radialGradient17);stroke-width:0.95" />
      <path
         id="use9"
         d="m -80.610173,-80.610173 c -13.435029,13.435029 -5.374012,45.679098 14.778532,65.831641 20.152543,20.1525435 49.037855,24.854804 62.4728838,11.4197748 C 13.435029,-20.152543 5.3740115,-52.396612 -13.435029,-80.610173 -29.557063,-104.79322 -33.587572,-127.63277 -18.80904,-142.41131 0,-161.22035 35.602826,-159.20509 57.098873,-137.70905 83.96893,-110.83899 94.045202,-67.175144 88.67119,-34.931075 83.96893,-3.3587572 67.175144,20.152543 43.663844,36.946329 -3.3587572,70.533901 -70.533901,57.098873 -110.83899,16.793786 -127.63277,0 -127.63277,-33.587572 -80.610173,-80.610173 Z"
         style="fill:url(#radialGradient18);stroke-width:0.95" />
      <path
         id="use10"
         d="m 0,-114 c -19,0 -36.1,28.5 -36.1,57 0,28.5 17.1,52.25 36.1,52.25 23.75,0 40.85,-28.5 47.5,-61.75 5.7,-28.5 19,-47.5 39.9,-47.5 26.6,0 50.35,26.6 50.35,57 0,38 -23.75,76 -50.35,95 -25.65,19 -54.15,23.75 -82.65,19 -57,-9.5 -95,-66.5 -95,-123.5 0,-23.75 23.75,-47.5 90.25,-47.5 z"
         style="fill:url(#radialGradient19);stroke-width:0.95" />
      <path
         id="use11"
         d="M 80.610173,-80.610173 C 67.175144,-94.045202 34.931075,-85.984185 14.778532,-65.831641 -5.3740115,-45.679098 -10.076272,-16.793786 3.3587572,-3.3587572 20.152543,13.435029 52.396612,5.3740115 80.610173,-13.435029 104.79322,-29.557063 127.63277,-33.587572 142.41131,-18.80904 161.22035,0 159.20509,35.602826 137.70905,57.098873 110.83899,83.96893 67.175144,94.045202 34.931075,88.67119 3.3587572,83.96893 -20.152543,67.175144 -36.946329,43.663844 -70.533901,-3.3587572 -57.098873,-70.533901 -16.793786,-110.83899 0,-127.63277 33.587572,-127.63277 80.610173,-80.610173 Z"
         style="fill:url(#radialGradient20);stroke-width:0.95" />
    </g>
    <!-- central hole -->
    <path
       id="circle11"
       style="fill:#ffffff"
       d="M 48,0 A 48,48 0 0 1 0,48 48,48 0 0 1 -48,0 48,48 0 0 1 0,-48 48,48 0 0 1 48,0 Z" />
  </g>
  <!-- Brand text -->
  <path
     d="m 199.68006,684.32 h 37.8 q 9.12,0 14.88,2.64 5.76,2.64 8.88,6.6 3.12,3.96 4.2,8.64 1.2,4.68 1.2,8.64 0,3.96 -1.2,8.64 -1.08,4.56 -4.2,8.52 -3.12,3.96 -8.88,6.6 -5.76,2.52 -14.88,2.52 h -22.8 V 770 h -15 z m 15,40.56 h 21.96 q 2.52,0 5.16,-0.72 2.64,-0.72 4.8,-2.28 2.28,-1.68 3.6,-4.32 1.44,-2.76 1.44,-6.84 0,-4.2 -1.2,-6.96 -1.2,-2.76 -3.24,-4.32 -2.04,-1.68 -4.68,-2.28 -2.64,-0.6 -5.64,-0.6 h -22.2 z m 67.03998,-40.56 h 35.52 q 9.84,0 17.04,3.36 7.2,3.36 11.76,9.24 4.56,5.76 6.72,13.56 2.28,7.8 2.28,16.68 0,8.88 -2.28,16.68 -2.16,7.8 -6.72,13.68 -4.56,5.76 -11.76,9.12 -7.2,3.36 -17.04,3.36 h -35.52 z m 15,73.44 h 14.76 q 8.76,0 14.28,-2.28 5.64,-2.4 8.76,-6.48 3.24,-4.2 4.32,-9.72 1.2,-5.64 1.2,-12.12 0,-6.48 -1.2,-12 -1.08,-5.64 -4.32,-9.72 -3.12,-4.2 -8.76,-6.48 -5.52,-2.4 -14.28,-2.4 h -14.76 z m 73.64001,-73.44 h 59.16 v 12.96 h -44.16 v 22.44 h 38.76 v 12.24 h -38.76 V 770 h -15 z m 113.12005,44.4 q -0.84,-5.76 -4.68,-8.64 -3.72,-3 -9.48,-3 -2.64,0 -5.64,0.96 -3,0.84 -5.52,3.36 -2.52,2.4 -4.2,6.84 -1.68,4.32 -1.68,11.4 0,3.84 0.84,7.68 0.96,3.84 2.88,6.84 2.04,3 5.16,4.92 3.12,1.8 7.56,1.8 6,0 9.84,-3.72 3.96,-3.72 4.92,-10.44 h 13.68 q -1.92,12.12 -9.24,18.6 -7.2,6.36 -19.2,6.36 -7.32,0 -12.96,-2.4 -5.52,-2.52 -9.36,-6.72 -3.84,-4.32 -5.88,-10.2 -1.92,-5.88 -1.92,-12.72 0,-6.96 1.92,-13.08 1.92,-6.12 5.76,-10.56 3.84,-4.56 9.48,-7.08 5.76,-2.64 13.44,-2.64 5.4,0 10.2,1.44 4.92,1.32 8.64,4.08 3.84,2.76 6.24,6.96 2.4,4.2 2.88,9.96 z m 55.27996,42.96 q -7.44,0 -13.32,-2.4 -5.76,-2.52 -9.84,-6.84 -3.96,-4.32 -6.12,-10.32 -2.04,-6 -2.04,-13.2 0,-7.08 2.04,-13.08 2.16,-6 6.12,-10.32 4.08,-4.32 9.84,-6.72 5.88,-2.52 13.32,-2.52 7.44,0 13.2,2.52 5.88,2.4 9.84,6.72 4.08,4.32 6.12,10.32 2.16,6 2.16,13.08 0,7.2 -2.16,13.2 -2.04,6 -6.12,10.32 -3.96,4.32 -9.84,6.84 -5.76,2.4 -13.2,2.4 z m 0,-10.8 q 4.56,0 7.92,-1.92 3.36,-1.92 5.52,-5.04 2.16,-3.12 3.12,-6.96 1.08,-3.96 1.08,-8.04 0,-3.96 -1.08,-7.92 -0.96,-3.96 -3.12,-6.96 -2.16,-3.12 -5.52,-5.04 -3.36,-1.92 -7.92,-1.92 -4.56,0 -7.92,1.92 -3.36,1.92 -5.52,5.04 -2.16,3 -3.24,6.96 -0.96,3.96 -0.96,7.92 0,4.08 0.96,8.04 1.08,3.84 3.24,6.96 2.16,3.12 5.52,5.04 3.36,1.92 7.92,1.92 z m 44.72006,-52.92 h 12.96 v 9.12 l 0.24,0.24 q 3.12,-5.16 8.16,-8.04 5.04,-3 11.16,-3 10.2,0 16.08,5.28 5.88,5.28 5.88,15.84 V 770 h -13.68 v -39 q -0.24,-7.32 -3.12,-10.56 -2.88,-3.36 -9,-3.36 -3.48,0 -6.24,1.32 -2.76,1.2 -4.68,3.48 -1.92,2.16 -3,5.16 -1.08,3 -1.08,6.36 V 770 h -13.68 z m 64.75991,0 h 14.88 l 15.72,47.64 h 0.24 l 15.12,-47.64 h 14.16 l -22.2,62.04 h -15.36 z"
     id="text12"
     class="title"
     style="font-weight:500;font-size:120px;font-family:Inter, system-ui, '-apple-system', 'Segoe UI', Roboto, Ubuntu, Cantarell, 'Helvetica Neue', Arial, sans-serif;letter-spacing:2px;text-anchor:middle;fill:#6e3aa3"
     aria-label="PDFconv" />
</svg>
