<?xml version="1.0" encoding="UTF-8" standalone="no"?>
<!-- Uploaded to: SVG Repo, www.svgrepo.com, Generator: SVG Repo Mixer Tools -->

<svg
   width="800px"
   height="800px"
   viewBox="0 0 24 24"
   fill="none"
   version="1.1"
   id="svg2"
   sodipodi:docname="user.svg"
   inkscape:version="1.3.2 (091e20e, 2023-11-25)"
   xmlns:inkscape="http://www.inkscape.org/namespaces/inkscape"
   xmlns:sodipodi="http://sodipodi.sourceforge.net/DTD/sodipodi-0.dtd"
   xmlns="http://www.w3.org/2000/svg"
   xmlns:svg="http://www.w3.org/2000/svg">
  <defs
     id="defs2" />
  <sodipodi:namedview
     id="namedview2"
     pagecolor="#ffffff"
     bordercolor="#000000"
     borderopacity="0.25"
     inkscape:showpageshadow="2"
     inkscape:pageopacity="0.0"
     inkscape:pagecheckerboard="0"
     inkscape:deskcolor="#d1d1d1"
     inkscape:zoom="0.295"
     inkscape:cx="398.30508"
     inkscape:cy="400"
     inkscape:window-width="1536"
     inkscape:window-height="449"
     inkscape:window-x="0"
     inkscape:window-y="25"
     inkscape:window-maximized="0"
     inkscape:current-layer="svg2" />
  <path
     style="color:#000000;fill:#1c274c;-inkscape-stroke:none"
     d="M 12,5.25 C 9.9378177,5.25 8.25,6.9378177 8.25,9 c 0,2.062182 1.6878177,3.75 3.75,3.75 2.062182,0 3.75,-1.687818 3.75,-3.75 0,-2.0621823 -1.687818,-3.75 -3.75,-3.75 z m 0,1.5 c 1.251523,0 2.25,0.9984771 2.25,2.25 0,1.251523 -0.998477,2.25 -2.25,2.25 C 10.748477,11.25 9.75,10.251523 9.75,9 9.75,7.7484771 10.748477,6.75 12,6.75 Z"
     id="circle1" />
  <path
     style="color:#000000;fill:#1c274c;-inkscape-stroke:none"
     d="M 12,1.25 C 6.0718283,1.25 1.25,6.0718283 1.25,12 1.25,17.928172 6.0718283,22.75 12,22.75 17.928172,22.75 22.75,17.928172 22.75,12 22.75,6.0718283 17.928172,1.25 12,1.25 Z m 0,1.5 c 5.117512,0 9.25,4.1324877 9.25,9.25 0,5.117512 -4.132488,9.25 -9.25,9.25 C 6.8824877,21.25 2.75,17.117512 2.75,12 2.75,6.8824877 6.8824877,2.75 12,2.75 Z"
     id="circle2" />
  <path
     style="color:#000000;fill:#1c274c;stroke-linecap:round;-inkscape-stroke:none"
     d="m 12,14.25 c -2.5693796,0 -4.2645883,0.557779 -5.3125,1.644531 -1.0479117,1.086753 -1.3230309,2.552497 -1.40625,4.064453 a 0.75,0.75 0 0 0 0.7089844,0.789063 0.75,0.75 0 0 0 0.7890625,-0.707031 C 6.8552277,18.661475 7.1018815,17.625918 7.7675781,16.935547 8.4332747,16.245176 9.6446945,15.75 12,15.75 c 2.355363,0 3.566722,0.495179 4.232422,1.185547 0.6657,0.690368 0.912374,1.725932 0.988281,3.105469 a 0.75,0.75 0 0 0 0.789063,0.707031 0.75,0.75 0 0 0 0.708984,-0.789063 C 18.635557,18.447024 18.360423,16.981286 17.3125,15.894531 16.264577,14.807776 14.569432,14.25 12,14.25 Z"
     id="path2" />
</svg>
